<svg width="32" height="32" viewBox="0 0 32 32" fill="none" xmlns="http://www.w3.org/2000/svg">
  <defs>
    <linearGradient id="gradient" x1="0%" y1="0%" x2="100%" y2="100%">
      <stop offset="0%" style="stop-color:#00D4FF;stop-opacity:1" />
      <stop offset="100%" style="stop-color:#00FF88;stop-opacity:1" />
    </linearGradient>
  </defs>
  <circle cx="16" cy="16" r="14" stroke="url(#gradient)" stroke-width="2" fill="none"/>
  <path d="M12 10 L12 22 L18 22 Q20 22 21 21 Q22 20 22 18 Q22 17 21.5 16.5 Q21 16 20 16 Q21 16 21.5 15.5 Q22 15 22 14 Q22 12 21 11 Q20 10 18 10 L12 10 Z M14 12 L18 12 Q19 12 19 13 Q19 14 18 14 L14 14 L14 12 Z M14 16 L18 16 Q19.5 16 19.5 17.5 Q19.5 19 18 19 L14 19 L14 16 Z" fill="url(#gradient)"/>
</svg>