<svg width="96" height="96" viewBox="0 0 96 96" fill="none" xmlns="http://www.w3.org/2000/svg">
  <defs>
    <linearGradient id="blufin-gradient" x1="0%" y1="0%" x2="100%" y2="100%">
      <stop offset="0%" style="stop-color:#00D4FF;stop-opacity:1" />
      <stop offset="50%" style="stop-color:#00FF88;stop-opacity:1" />
      <stop offset="100%" style="stop-color:#00D4FF;stop-opacity:1" />
    </linearGradient>
    <filter id="glow">
      <feGaussianBlur stdDeviation="3" result="coloredBlur"/>
      <feMerge> 
        <feMergeNode in="coloredBlur"/>
        <feMergeNode in="SourceGraphic"/>
      </feMerge>
    </filter>
  </defs>
  
  <!-- Outer ring -->
  <circle cx="48" cy="48" r="44" stroke="url(#blufin-gradient)" stroke-width="2" fill="none" opacity="0.6"/>
  
  <!-- Inner circle -->
  <circle cx="48" cy="48" r="32" fill="url(#blufin-gradient)" opacity="0.1"/>
  
  <!-- Central logo -->
  <g filter="url(#glow)">
    <!-- B -->
    <path d="M32 28 L32 68 L44 68 Q50 68 54 64 Q58 60 58 54 Q58 50 56 47 Q54 44 50 43 Q54 42 56 39 Q58 36 58 32 Q58 26 54 22 Q50 18 44 18 L32 28 Z M38 24 L44 24 Q46 24 47 25 Q48 26 48 28 Q48 30 47 31 Q46 32 44 32 L38 32 L38 24 Z M38 38 L44 38 Q47 38 48.5 39.5 Q50 41 50 44 Q50 47 48.5 48.5 Q47 50 44 50 L38 50 L38 38 Z" fill="url(#blufin-gradient)"/>
    
    <!-- F -->
    <path d="M62 28 L62 68 L68 68 L68 50 L76 50 L76 44 L68 44 L68 34 L78 34 L78 28 L62 28 Z" fill="url(#blufin-gradient)"/>
  </g>
  
  <!-- Orbital dots -->
  <circle cx="48" cy="16" r="2" fill="#00D4FF" opacity="0.8">
    <animateTransform attributeName="transform" type="rotate" values="0 48 48;360 48 48" dur="10s" repeatCount="indefinite"/>
  </circle>
  <circle cx="80" cy="48" r="2" fill="#00FF88" opacity="0.8">
    <animateTransform attributeName="transform" type="rotate" values="0 48 48;360 48 48" dur="15s" repeatCount="indefinite"/>
  </circle>
  <circle cx="48" cy="80" r="2" fill="#00D4FF" opacity="0.8">
    <animateTransform attributeName="transform" type="rotate" values="0 48 48;360 48 48" dur="12s" repeatCount="indefinite"/>
  </circle>
  <circle cx="16" cy="48" r="2" fill="#00FF88" opacity="0.8">
    <animateTransform attributeName="transform" type="rotate" values="0 48 48;360 48 48" dur="8s" repeatCount="indefinite"/>
  </circle>
</svg>